<?xml version="1.0" encoding="utf-8"?>
<!-- Generator: Adobe Illustrator 24.3.0, SVG Export Plug-In . SVG Version: 6.00 Build 0)  -->
<svg version="1.1" id="Capa_1" xmlns="http://www.w3.org/2000/svg" xmlns:xlink="http://www.w3.org/1999/xlink" x="0px" y="0px"
	 viewBox="0 0 678.2 73" style="enable-background:new 0 0 678.2 73;" xml:space="preserve">
<style type="text/css">
	.st0{fill:none;stroke:#B0B0B0;stroke-miterlimit:10;}
	.st1{fill:#FFFFFF;}
	.st2{fill:#E6373A;}
	.st3{fill:#FEFDFD;}
</style>
<line class="st0" x1="200.6" y1="-0.3" x2="200.6" y2="72.8"/>
<g>
	<path class="st1" d="M49.7,37.3l9-31.5h39l-0.1,0.4l1.2,1.7l-2.2,7.7H67.7l-0.6,2.3l0.2-0.3H95L94.5,18l1.3,1.7l-7.7,7.6H64.3
		L61,39h-9.7l-1.2-1.7H49.7z M86.7,24.7l6.4-6.3H67.4L63,22.8l2.9-9.9h28.9l1.8-6.3H59.3l-8.5,29.8h8.4l3.3-11.7H86.7z"/>
	<path class="st1" d="M71.8,60.3l2.1-7.3l24.8-14.4H80.1l-1.2-1.7h-0.4l2.3-8h40.3l-0.1,0.4l1.2,1.7l-2.1,7.1L95.5,52.2h18.8
		l-0.1,0.4l1.2,1.7l-2.2,7.6H73.4l-1.2-1.7H71.8z M104.6,35.9L74.6,53.3l-1.7,6h38.6l1.8-6.3H88.3l29.9-17.4l1.7-6.1H81.4l-1.8,6.3
		H104.6z"/>
</g>
<g>
	<path class="st1" d="M227.2,28.8v5.6h11.1v4.2h-11.1v8.8h-4.6V24.6h17v4.2H227.2z"/>
	<path class="st1" d="M253.1,30.2c0.5,0,0.9,0,1.2,0.1l-0.2,4.3h-1c-4,0-6.1,2.4-6.1,7.3v5.5h-4.5v-17h4.5v3.1
		c0.7-1,1.6-1.8,2.6-2.4C250.6,30.5,251.8,30.2,253.1,30.2z"/>
	<path class="st1" d="M274,30.4v17h-4.5v-1.3c-1.5,1.2-3.4,1.8-5.6,1.8c-1.1,0-2.1-0.2-3.1-0.6c-1-0.4-1.9-1-2.7-1.9
		c-0.8-0.8-1.4-1.8-1.9-2.9c-0.5-1.1-0.7-2.3-0.7-3.6c0-1,0.2-1.9,0.5-3c0.3-1,0.9-2,1.7-3c0.8-1,1.8-1.7,2.9-2.2
		c1.1-0.5,2.2-0.7,3.3-0.7c2.2,0,4.1,0.6,5.6,1.9v-1.4H274z M264.7,44c0.6,0,1.2-0.1,1.8-0.4c0.6-0.2,1.1-0.6,1.6-1
		c0.4-0.4,0.8-1,1.1-1.6c0.3-0.6,0.4-1.3,0.4-2.1c0-1.1-0.3-2.1-0.9-2.9c-0.6-0.8-1.2-1.4-2-1.7c-0.8-0.3-1.4-0.5-2-0.5
		c-1.4,0-2.5,0.5-3.4,1.4c-0.9,0.9-1.3,2.2-1.3,3.7c0,1,0.2,1.8,0.6,2.6c0.4,0.8,1,1.4,1.8,1.8S263.8,44,264.7,44z"/>
	<path class="st1" d="M288.6,29.9c2,0,3.7,0.7,4.9,2c1.3,1.3,1.9,3,1.9,5.2v10.3h-4.5V38c0-1.2-0.3-2.1-1-2.9
		c-0.6-0.7-1.5-1.1-2.5-1.1c-1.3,0-2.4,0.5-3.1,1.4c-0.7,1-1.1,2.4-1.1,4.4v7.5h-4.5v-17h4.5V32C284.6,30.6,286.4,29.9,288.6,29.9z"
		/>
	<path class="st1" d="M296.4,52.9l0.8-3.9c0.6,0.2,1.1,0.3,1.5,0.3c0.5,0,0.9-0.1,1.2-0.4c0.3-0.2,0.4-0.6,0.4-1V30.4h4.5v18.2
		c0,1.5-0.5,2.7-1.4,3.6c-0.9,0.9-2.1,1.4-3.6,1.4C298.7,53.5,297.6,53.3,296.4,52.9z M302.5,22.7c0.7,0,1.4,0.3,1.9,0.8
		c0.5,0.5,0.8,1.2,0.8,1.9c0,0.7-0.3,1.4-0.8,1.9c-0.5,0.5-1.2,0.7-1.9,0.7s-1.4-0.2-1.9-0.7c-0.5-0.5-0.8-1.1-0.8-1.9
		c0-0.7,0.3-1.4,0.8-1.9C301.1,23,301.8,22.7,302.5,22.7z"/>
	<path class="st1" d="M325.1,53h-17v-3.7h17V53z"/>
	<path class="st1" d="M345.6,43.5v3.9h-18.2v-3l12.1-15.9h-11.8v-3.9h17.6v3.5l-11.4,15.3H345.6z"/>
</g>
<g>
	<path class="st2" d="M389.4,19.9c4.9,0,9.7,0,14.6,0c4.1,0,7.5,2.8,8.4,6.7c0.1,0.7,0.2,1.3,0.2,2c0,4.9,0,9.8,0,14.8
		c0,4.3-2.9,7.8-7.1,8.6c-0.5,0.1-1.1,0.1-1.7,0.1c-9.6,0-19.3,0-28.9,0c-4.4,0-7.9-2.9-8.7-7.2c-0.1-0.5-0.1-1.1-0.1-1.6
		c0-4.9,0-9.8,0-14.7c0-4.4,2.9-7.9,7.2-8.7c0.6-0.1,1.1-0.1,1.7-0.1C379.8,19.9,384.6,19.9,389.4,19.9z M385.4,43.7
		c3.8-2.6,7.6-5.1,11.4-7.6c-3.8-2.6-7.6-5.1-11.4-7.6C385.4,33.5,385.4,38.6,385.4,43.7z"/>
	<path class="st3" d="M385.4,43.7c0-5.1,0-10.2,0-15.3c3.8,2.6,7.5,5.1,11.4,7.6C393,38.6,389.2,41.1,385.4,43.7z"/>
</g>
</svg>
