<?xml version="1.0" encoding="utf-8"?>
<!-- Generator: Adobe Illustrator 21.0.0, SVG Export Plug-In . SVG Version: 6.00 Build 0)  -->
<svg version="1.1" id="Capa_1" xmlns="http://www.w3.org/2000/svg" xmlns:xlink="http://www.w3.org/1999/xlink" x="0px" y="0px"
	 viewBox="0 0 38 38" style="enable-background:new 0 0 38 38;" xml:space="preserve">
<style type="text/css">
	.st0{fill:#E73672;}
	.st1{fill:#FFFFFF;}
</style>
<g>
	<circle class="st0" cx="19" cy="19" r="18.7"/>
	<g>
		<path class="st1" d="M19,10.2c2.9,0,3.2,0,4.3,0.1c1,0,1.6,0.2,2,0.4c0.5,0.2,0.9,0.4,1.2,0.8c0.4,0.4,0.6,0.7,0.8,1.2
			c0.1,0.4,0.3,0.9,0.4,2c0.1,1.1,0.1,1.5,0.1,4.3s0,3.2-0.1,4.3c0,1-0.2,1.6-0.4,2c-0.2,0.5-0.4,0.9-0.8,1.2
			c-0.4,0.4-0.7,0.6-1.2,0.8c-0.4,0.1-0.9,0.3-2,0.4c-1.1,0.1-1.5,0.1-4.3,0.1s-3.2,0-4.3-0.1c-1,0-1.6-0.2-2-0.4
			c-0.5-0.2-0.9-0.4-1.2-0.8c-0.4-0.4-0.6-0.7-0.8-1.2c-0.1-0.4-0.3-0.9-0.4-2c-0.1-1.1-0.1-1.5-0.1-4.3s0-3.2,0.1-4.3
			c0-1,0.2-1.6,0.4-2c0.2-0.5,0.4-0.9,0.8-1.2c0.4-0.4,0.7-0.6,1.2-0.8c0.4-0.1,0.9-0.3,2-0.4C15.8,10.3,16.1,10.2,19,10.2 M19,8.3
			c-2.9,0-3.3,0-4.4,0.1c-1.1,0.1-1.9,0.2-2.6,0.5c-0.7,0.3-1.3,0.6-1.9,1.2c-0.6,0.6-1,1.2-1.2,1.9c-0.3,0.7-0.4,1.5-0.5,2.6
			c-0.1,1.1-0.1,1.5-0.1,4.4c0,2.9,0,3.3,0.1,4.4c0.1,1.1,0.2,1.9,0.5,2.6c0.3,0.7,0.6,1.3,1.2,1.9c0.6,0.6,1.2,1,1.9,1.2
			c0.7,0.3,1.5,0.4,2.6,0.5c1.1,0.1,1.5,0.1,4.4,0.1s3.3,0,4.4-0.1c1.1-0.1,1.9-0.2,2.6-0.5c0.7-0.3,1.3-0.6,1.9-1.2
			c0.6-0.6,1-1.2,1.2-1.9c0.3-0.7,0.4-1.5,0.5-2.6c0.1-1.1,0.1-1.5,0.1-4.4s0-3.3-0.1-4.4c-0.1-1.1-0.2-1.9-0.5-2.6
			c-0.3-0.7-0.6-1.3-1.2-1.9c-0.6-0.6-1.2-1-1.9-1.2c-0.7-0.3-1.5-0.4-2.6-0.5C22.3,8.3,21.9,8.3,19,8.3L19,8.3z"/>
		<path class="st1" d="M19,13.5c-3,0-5.5,2.5-5.5,5.5c0,3,2.5,5.5,5.5,5.5s5.5-2.5,5.5-5.5C24.5,16,22,13.5,19,13.5z M19,22.6
			c-2,0-3.6-1.6-3.6-3.6c0-2,1.6-3.6,3.6-3.6c2,0,3.6,1.6,3.6,3.6C22.6,21,21,22.6,19,22.6z"/>
		<circle class="st1" cx="24.7" cy="13.3" r="1.3"/>
	</g>
</g>
</svg>
