<?xml version="1.0" encoding="utf-8"?>
<!-- Generator: Adobe Illustrator 21.0.0, SVG Export Plug-In . SVG Version: 6.00 Build 0)  -->
<svg version="1.1" id="Capa_1" xmlns="http://www.w3.org/2000/svg" xmlns:xlink="http://www.w3.org/1999/xlink" x="0px" y="0px"
	 viewBox="0 0 38 38" style="enable-background:new 0 0 38 38;" xml:space="preserve">
<style type="text/css">
	.st0{fill:#33A8E0;}
	.st1{fill:#FFFFFF;}
</style>
<g>
	<circle class="st0" cx="19" cy="19" r="18.7"/>
	<path class="st1" d="M26.4,15.2c0,0.2,0,0.3,0,0.5c0,5.1-3.9,10.9-10.9,10.9c-2.2,0-4.2-0.6-5.9-1.7c0.3,0,0.6,0.1,0.9,0.1
		c1.8,0,3.4-0.6,4.8-1.6c-1.7,0-3.1-1.1-3.6-2.7c0.2,0,0.5,0.1,0.7,0.1c0.4,0,0.7,0,1-0.1c-1.8-0.4-3.1-1.9-3.1-3.8c0,0,0,0,0,0
		c0.5,0.3,1.1,0.5,1.7,0.5c-1-0.7-1.7-1.9-1.7-3.2c0-0.7,0.2-1.4,0.5-1.9c1.9,2.3,4.7,3.8,7.9,4c-0.1-0.3-0.1-0.6-0.1-0.9
		c0-2.1,1.7-3.8,3.8-3.8c1.1,0,2.1,0.5,2.8,1.2c0.9-0.2,1.7-0.5,2.4-0.9c-0.3,0.9-0.9,1.6-1.7,2.1c0.8-0.1,1.5-0.3,2.2-0.6
		C27.8,14,27.2,14.7,26.4,15.2z"/>
</g>
</svg>
