<?xml version="1.0" encoding="utf-8"?>
<!-- Generator: Adobe Illustrator 21.0.0, SVG Export Plug-In . SVG Version: 6.00 Build 0)  -->
<svg version="1.1" id="Capa_1" xmlns="http://www.w3.org/2000/svg" xmlns:xlink="http://www.w3.org/1999/xlink" x="0px" y="0px"
	 viewBox="0 0 38 38" style="enable-background:new 0 0 38 38;" xml:space="preserve">
<style type="text/css">
	.st0{fill:#E6373A;}
	.st1{fill:#FFFFFF;}
</style>
<g>
	<circle class="st0" cx="19" cy="19" r="18.7"/>
	<path class="st1" d="M21.3,11.7h1.1v4c0,0.1,0,0.2,0.1,0.3c0,0.1,0.1,0.1,0.2,0.1c0.1,0,0.2,0,0.3-0.1c0.1-0.1,0.2-0.2,0.3-0.3v-4
		h1.1v5.2h-1.1v-0.6c-0.2,0.2-0.4,0.4-0.6,0.5C22.4,16.9,22.2,17,22,17c-0.2,0-0.4-0.1-0.6-0.2c-0.1-0.2-0.2-0.4-0.2-0.7V11.7z"/>
	<path class="st1" d="M17.3,12.9c0-0.4,0.1-0.7,0.4-1c0.3-0.2,0.7-0.4,1.2-0.4c0.4,0,0.8,0.1,1.1,0.4c0.3,0.3,0.4,0.6,0.4,1v2.7
		c0,0.4-0.1,0.8-0.4,1c-0.3,0.3-0.7,0.4-1.1,0.4c-0.5,0-0.8-0.1-1.1-0.4c-0.3-0.3-0.4-0.6-0.4-1.1V12.9z"/>
	<polygon class="st1" points="14.4,9.9 15.2,12.7 15.3,12.7 16,9.9 17.2,9.9 15.8,14 15.8,16.9 14.6,16.9 14.6,14.1 13.2,9.9 	"/>
	<path class="st1" d="M28.3,24.7c0,1.9-1.5,3.4-3.4,3.4H13.1c-1.9,0-3.4-1.5-3.4-3.4V22c0-1.9,1.5-3.4,3.4-3.4h11.9
		c1.9,0,3.4,1.5,3.4,3.4V24.7z"/>
	<path class="st0" d="M18.8,16.2c0.1,0,0.3,0,0.3-0.1c0.1-0.1,0.1-0.2,0.1-0.3v-2.8c0-0.1,0-0.2-0.1-0.3c-0.1-0.1-0.2-0.1-0.3-0.1
		c-0.1,0-0.2,0-0.3,0.1c-0.1,0.1-0.1,0.2-0.1,0.3v2.8c0,0.1,0,0.3,0.1,0.3C18.6,16.1,18.7,16.2,18.8,16.2z"/>
	<path class="st0" d="M21.2,21.4c-0.1,0-0.3,0-0.4,0.1c-0.1,0.1-0.3,0.2-0.4,0.3v-2.1h-1v6.4h1v-0.4c0.1,0.1,0.3,0.3,0.4,0.3
		c0.1,0.1,0.3,0.1,0.5,0.1c0.3,0,0.5-0.1,0.6-0.3c0.1-0.2,0.2-0.4,0.2-0.8v-2.6c0-0.4-0.1-0.7-0.2-0.9
		C21.7,21.5,21.5,21.4,21.2,21.4z M21.1,25.1c0,0.2,0,0.3-0.1,0.3c-0.1,0.1-0.1,0.1-0.3,0.1c-0.1,0-0.2,0-0.2-0.1
		c-0.1,0-0.1-0.1-0.2-0.2v-2.9c0.1-0.1,0.1-0.1,0.2-0.1c0.1,0,0.1,0,0.2,0c0.1,0,0.2,0,0.3,0.1c0.1,0.1,0.1,0.2,0.1,0.4V25.1z"/>
	<polygon class="st0" points="12.3,20.7 13.4,20.7 13.4,26.2 14.5,26.2 14.5,20.7 15.6,20.7 15.6,19.8 12.3,19.8 	"/>
	<path class="st0" d="M17.7,25c-0.1,0.1-0.2,0.2-0.3,0.3c-0.1,0.1-0.2,0.1-0.3,0.1c-0.1,0-0.2,0-0.2-0.1c0,0-0.1-0.1-0.1-0.2v-3.6
		H16v4c0,0.3,0.1,0.5,0.2,0.6c0.1,0.1,0.3,0.2,0.5,0.2c0.2,0,0.4,0,0.5-0.2c0.2-0.1,0.4-0.2,0.5-0.4v0.5h0.9v-4.7h-0.9V25z"/>
	<path class="st0" d="M24,21.3c-0.4,0-0.8,0.1-1,0.4c-0.3,0.3-0.4,0.6-0.4,1v2.1c0,0.5,0.1,0.8,0.4,1.1c0.2,0.3,0.6,0.4,1,0.4
		c0.5,0,0.8-0.1,1.1-0.4c0.2-0.2,0.4-0.6,0.4-1.1v-0.2h-1v0.2c0,0.3,0,0.5-0.1,0.5c-0.1,0.1-0.2,0.1-0.3,0.1c-0.2,0-0.3,0-0.3-0.1
		c-0.1-0.1-0.1-0.3-0.1-0.5v-0.9h1.8v-1.2c0-0.4-0.1-0.8-0.4-1C24.8,21.5,24.5,21.3,24,21.3z M24.4,23.2h-0.8v-0.5
		c0-0.2,0-0.3,0.1-0.4c0.1-0.1,0.2-0.1,0.3-0.1c0.1,0,0.3,0,0.3,0.1c0.1,0.1,0.1,0.2,0.1,0.4V23.2z"/>
</g>
</svg>
